<svg xmlns="http://www.w3.org/2000/svg" width="1280" height="168" viewBox="0 0 1280 168" role="img" aria-label="ATK Timeline — Attack timeline builder mapped to MITRE ATT&amp;CK">
  <defs>
    <linearGradient id="rail" x1="0" y1="0" x2="0" y2="1">
      <stop offset="0" stop-color="#b45309"/><stop offset="1" stop-color="#b45309" stop-opacity="0.55"/>
    </linearGradient>
    <linearGradient id="tile" x1="0" y1="0" x2="1" y2="1">
      <stop offset="0" stop-color="#b45309"/><stop offset="1" stop-color="#b45309" stop-opacity="0.82"/>
    </linearGradient>
  </defs>
  <rect width="1280" height="168" fill="#ffffff"/>
  <circle cx="1210" cy="84" r="150" fill="#b45309" opacity="0.05"/>
  <circle cx="1130" cy="208" r="120" fill="#b45309" opacity="0.045"/>
  <rect x="52" y="58" width="52" height="52" rx="13" fill="url(#tile)"/>
  <path d="M65.0 84.0 h26" stroke="#fff" stroke-width="2.4" fill="none" stroke-linecap="round" stroke-linejoin="round"/><circle cx="70.0" cy="84.0" r="3" stroke="#fff" stroke-width="2.4" fill="none" stroke-linecap="round" stroke-linejoin="round"/><circle cx="80.0" cy="84.0" r="3" stroke="#fff" stroke-width="2.4" fill="none" stroke-linecap="round" stroke-linejoin="round"/><circle cx="89.0" cy="84.0" r="3" stroke="#fff" stroke-width="2.4" fill="none" stroke-linecap="round" stroke-linejoin="round"/>
  <text x="130" y="72" font-family="-apple-system,Segoe UI,Roboto,Helvetica,Arial,sans-serif" font-size="31" font-weight="650" letter-spacing="-0.5" fill="#101318">ATK Timeline</text>
  <text x="130" y="100" font-family="-apple-system,Segoe UI,Roboto,Helvetica,Arial,sans-serif" font-size="15.5" fill="#4b5560">Attack timeline builder mapped to MITRE ATT&amp;CK</text>
  <text x="130" y="123" font-family="ui-monospace,SFMono-Regular,Menlo,monospace" font-size="12.5" fill="#94a0ad">Python</text><circle cx="184" cy="119" r="1.6" fill="#b45309"/><text x="197" y="123" font-family="ui-monospace,SFMono-Regular,Menlo,monospace" font-size="12.5" fill="#94a0ad">Flask</text><circle cx="244" cy="119" r="1.6" fill="#b45309"/><text x="257" y="123" font-family="ui-monospace,SFMono-Regular,Menlo,monospace" font-size="12.5" fill="#94a0ad">PostgreSQL</text><circle cx="343" cy="119" r="1.6" fill="#b45309"/><text x="356" y="123" font-family="ui-monospace,SFMono-Regular,Menlo,monospace" font-size="12.5" fill="#94a0ad">Docker · K8s</text>
  <rect x="0" y="0" width="5" height="168" fill="url(#rail)"/>
  <rect x="0.5" y="0.5" width="1279" height="167" rx="0" fill="none" stroke="#e6eaef" stroke-width="1"/>
</svg>